<svg width="240" height="240" viewBox="0 0 240 240" fill="none" xmlns="http://www.w3.org/2000/svg">
<path fill-rule="evenodd" clip-rule="evenodd" d="M133.347 48C153.923 48 170.604 64.5849 170.604 85.0435C170.604 95.475 166.267 104.9 159.289 111.632L158.889 111.357L159.3 111.655C171.174 119.507 179 132.932 179 148.174C179 172.378 159.265 192 134.921 192H77.0381C74.8079 192 73 190.197 73 187.972V144.932L116.471 156.378C117.01 156.52 117.562 156.199 117.704 155.662C117.727 155.578 117.738 155.491 117.738 155.405V130.516C117.738 129.96 118.19 129.509 118.747 129.509C118.838 129.509 118.928 129.521 119.016 129.545L155.96 139.718C156.497 139.866 157.053 139.551 157.201 139.015C157.3 138.658 157.194 138.275 156.926 138.019L103.86 87.373C103.457 86.9885 102.818 87.0026 102.432 87.4044C102.253 87.5918 102.152 87.8412 102.152 88.1006V101.336C102.152 101.893 101.7 102.343 101.143 102.343C100.958 102.343 100.777 102.293 100.62 102.198L73 85.5145V52.028C73 49.8034 74.8079 48 77.0381 48H133.347Z" fill="url(#paint0_radial)"/>
<defs>
<radialGradient id="paint0_radial" cx="0" cy="0" r="1" gradientUnits="userSpaceOnUse" gradientTransform="translate(35.4541 6.66081) rotate(39.7839) scale(234.944 283.58)">
<stop offset="0.286458" stop-color="#F26AB2"/>
<stop offset="0.7769" stop-color="#B64FC6"/>
<stop offset="1" stop-color="#A748CB"/>
</radialGradient>
</defs>
</svg>
